<?xml version="1.0" standalone="no"?>
<!DOCTYPE svg PUBLIC "-//W3C//DTD SVG 20010904//EN"
 "http://www.w3.org/TR/2001/REC-SVG-20010904/DTD/svg10.dtd">
<svg version="1.0" xmlns="http://www.w3.org/2000/svg"
 width="50.000000pt" height="50.000000pt" viewBox="0 0 50.000000 50.000000"
 preserveAspectRatio="xMidYMid meet">

<g transform="translate(0.000000,50.000000) scale(0.100000,-0.100000)"
fill="#000000" stroke="none">
<path d="M120 462 c0 -4 11 -24 25 -43 21 -32 22 -39 10 -55 -21 -28 -18 -34
14 -34 22 0 30 -6 35 -25 8 -32 20 -32 34 -1 10 22 16 24 47 19 40 -7 44 1 13
34 -20 21 -20 24 -5 41 24 27 21 35 -10 29 -18 -3 -35 1 -46 11 -15 13 -20 14
-27 3 -6 -11 -15 -10 -43 8 -37 23 -47 25 -47 13z m99 -54 c4 7 12 6 23 -2 10
-7 15 -16 11 -19 -3 -4 0 -13 7 -22 10 -13 9 -15 -8 -15 -11 0 -23 -6 -26 -12
-5 -10 -7 -10 -12 0 -3 6 -15 12 -26 12 -17 0 -18 3 -9 14 9 11 10 20 1 36
-11 20 -10 21 11 10 14 -8 24 -9 28 -2z"/>
<path d="M390 367 c-31 -11 -38 -21 -64 -84 -22 -55 -33 -70 -45 -65 -9 3 -20
12 -25 20 -6 10 -18 12 -42 7 -19 -3 -34 -2 -34 2 0 5 -11 21 -25 36 -22 23
-34 27 -80 27 -30 0 -55 -4 -55 -10 0 -5 24 -10 54 -10 51 0 54 -2 81 -40 28
-41 39 -47 50 -30 11 18 35 11 35 -10 0 -17 5 -19 25 -14 24 6 25 5 25 -45 0
-28 -3 -51 -6 -51 -4 0 -17 11 -30 25 -29 32 -59 32 -88 0 -20 -21 -32 -25
-85 -25 -34 0 -61 -4 -61 -10 0 -6 27 -10 61 -10 53 0 65 -4 85 -25 13 -14 32
-25 44 -25 12 0 31 11 44 25 29 31 34 31 38 3 3 -20 9 -23 48 -23 39 0 45 3
48 23 3 19 9 22 48 22 24 0 44 5 44 10 0 6 -35 10 -85 10 l-85 0 0 44 c0 71 1
72 90 68 54 -3 80 -1 80 7 0 7 -26 11 -70 11 -79 0 -83 6 -55 73 15 36 52 57
101 57 13 0 24 5 24 10 0 13 -47 12 -90 -3z m-150 -252 c26 -32 -13 -81 -47
-59 -10 6 -19 19 -21 28 -8 38 43 61 68 31z m130 -50 c0 -10 -10 -15 -30 -15
-20 0 -30 5 -30 15 0 10 10 15 30 15 20 0 30 -5 30 -15z"/>
<path d="M327 193 c-30 -29 44 -90 81 -67 22 14 27 41 12 59 -12 15 -81 21
-93 8z m79 -24 c3 -6 1 -16 -5 -22 -12 -12 -61 6 -61 23 0 13 57 13 66 -1z"/>
</g>
</svg>
