<?xml version="1.0" encoding="utf-8"?>
<!-- Generator: Adobe Illustrator 20.1.0, SVG Export Plug-In . SVG Version: 6.00 Build 0)  -->
<svg version="1.1" id="Layer_1" xmlns="http://www.w3.org/2000/svg" xmlns:xlink="http://www.w3.org/1999/xlink" x="0px" y="0px"
	 viewBox="0 0 600 600" style="enable-background:new 0 0 600 600;" xml:space="preserve">
<style type="text/css">
	.st0{fill:none;stroke:#161815;stroke-width:14;stroke-miterlimit:10;}
	.st1{fill:#161815;}
</style>
<path id="XMLID_699_" class="st0" d="M300,542.9L300,542.9c-138.1,0-250-111.9-250-250l0,0c0-138.1,111.9-250,250-250l0,0
	c138.1,0,250,111.9,250,250l0,0C550,431,438.1,542.9,300,542.9z"/>
<path id="XMLID_659_" class="st1" d="M266.2,426.9h54V291.8h37.6l4-45.2h-41.7v-25.8c0-10.7,2.1-14.9,12.5-14.9h29.2v-47h-37.4
	c-40.2,0-58.3,17.7-58.3,51.5v36.1h-28.1v45.8h28.1V426.9z"/>
</svg>
