<?xml version="1.0" encoding="utf-8"?>
<!-- Generator: Adobe Illustrator 20.1.0, SVG Export Plug-In . SVG Version: 6.00 Build 0)  -->
<svg version="1.1" id="Layer_1" xmlns="http://www.w3.org/2000/svg" xmlns:xlink="http://www.w3.org/1999/xlink" x="0px" y="0px"
	 viewBox="0 0 600 600" style="enable-background:new 0 0 600 600;" xml:space="preserve">
<style type="text/css">
	.st0{fill:none;stroke:#161815;stroke-width:14;stroke-miterlimit:10;}
	.st1{fill:#161815;}
</style>
<g>
	<g>
		<path id="XMLID_696_" class="st0" d="M300,544L300,544C161.9,544,50,432.1,50,294l0,0C50,155.9,161.9,44,300,44l0,0
			c138.1,0,250,111.9,250,250l0,0C550,432.1,438.1,544,300,544z"/>
	</g>
	<g id="XMLID_649_">
		<path id="XMLID_656_" class="st1" d="M300,194.4c32.5,0,36.3,0.1,49.1,0.7c11.8,0.5,18.3,2.5,22.6,4.2c5.7,2.2,9.7,4.8,14,9.1
			c4.3,4.3,6.9,8.3,9.1,14c1.7,4.3,3.6,10.7,4.2,22.6c0.6,12.8,0.7,16.7,0.7,49.1c0,32.5-0.1,36.3-0.7,49.1
			c-0.5,11.9-2.5,18.3-4.2,22.6c-2.2,5.7-4.8,9.7-9.1,14c-4.3,4.3-8.3,6.9-14,9.1c-4.3,1.7-10.7,3.6-22.6,4.2
			c-12.8,0.6-16.7,0.7-49.1,0.7c-32.5,0-36.3-0.1-49.1-0.7c-11.8-0.5-18.3-2.5-22.6-4.2c-5.7-2.2-9.7-4.8-14-9.1
			c-4.3-4.3-6.9-8.3-9.1-14c-1.7-4.3-3.6-10.7-4.2-22.6c-0.6-12.8-0.7-16.7-0.7-49.1c0-32.5,0.1-36.3,0.7-49.1
			c0.5-11.9,2.5-18.3,4.2-22.6c2.2-5.7,4.8-9.7,9.1-14c4.3-4.3,8.3-6.9,14-9.1c4.3-1.7,10.7-3.6,22.6-4.2
			C263.7,194.5,267.5,194.4,300,194.4 M300,172.5c-33,0-37.1,0.1-50.1,0.7c-12.9,0.6-21.8,2.6-29.5,5.6c-8,3.1-14.8,7.3-21.5,14
			c-6.8,6.8-10.9,13.5-14,21.5c-3,7.7-5.1,16.6-5.6,29.5c-0.6,13-0.7,17.1-0.7,50.1s0.1,37.1,0.7,50.1c0.6,12.9,2.6,21.8,5.6,29.5
			c3.1,8,7.3,14.8,14,21.5c6.8,6.8,13.5,10.9,21.5,14c7.7,3,16.6,5.1,29.5,5.6c13,0.6,17.1,0.7,50.1,0.7c33,0,37.1-0.1,50.1-0.7
			c12.9-0.6,21.8-2.6,29.5-5.6c8-3.1,14.8-7.3,21.5-14c6.8-6.8,10.9-13.5,14-21.5c3-7.7,5.1-16.6,5.6-29.5c0.6-13,0.7-17.1,0.7-50.1
			s-0.1-37.1-0.7-50.1c-0.6-12.9-2.6-21.8-5.6-29.5c-3.1-8-7.3-14.8-14-21.5c-6.8-6.8-13.5-10.9-21.5-14c-7.7-3-16.6-5.1-29.5-5.6
			C337.1,172.6,333,172.5,300,172.5"/>
		<path id="XMLID_653_" class="st1" d="M300,231.6c-34.5,0-62.4,27.9-62.4,62.4s27.9,62.4,62.4,62.4c34.5,0,62.4-27.9,62.4-62.4
			S334.5,231.6,300,231.6 M300,334.5c-22.4,0-40.5-18.1-40.5-40.5c0-22.4,18.1-40.5,40.5-40.5c22.4,0,40.5,18.1,40.5,40.5
			C340.5,316.4,322.4,334.5,300,334.5"/>
		<path id="XMLID_652_" class="st1" d="M379.5,229.1c0,8.1-6.5,14.6-14.6,14.6c-8.1,0-14.6-6.5-14.6-14.6s6.5-14.6,14.6-14.6
			C372.9,214.5,379.5,221.1,379.5,229.1"/>
	</g>
</g>
</svg>
