<?xml version="1.0" encoding="utf-8"?>
<!-- Generator: Adobe Illustrator 20.1.0, SVG Export Plug-In . SVG Version: 6.00 Build 0)  -->
<svg version="1.1" id="Layer_1" xmlns="http://www.w3.org/2000/svg" xmlns:xlink="http://www.w3.org/1999/xlink" x="0px" y="0px"
	 viewBox="0 0 600 600" style="enable-background:new 0 0 600 600;" xml:space="preserve">
<style type="text/css">
	.st0{fill:none;stroke:#161815;stroke-width:14;stroke-miterlimit:10;}
	.st1{opacity:0.41;fill:#C60000;}
</style>
<g>
	<path id="XMLID_693_" class="st0" d="M296.9,552.6L296.9,552.6c-138.1,0-250-111.9-250-250l0,0c0-138.1,111.9-250,250-250l0,0
		c138.1,0,250,111.9,250,250l0,0C546.9,440.7,435,552.6,296.9,552.6z"/>
</g>
<g>
	<g>
		<path class="st1" d="M306.5,285.5V296V285.5C306.5,285.6,306.5,285.5,306.5,285.5z"/>
	</g>
	<path d="M410.9,232.9c0,43.7,0,44.8,0,44.8s-37.5,5.4-64.4-30.3v108.4c0,45.2-36.6,81.8-81.8,81.8c-45.2,0-81.8-36.6-81.8-81.8
		c0-45.1,36.6-81.8,81.8-81.8c1.2,0,2.3,0,3.4,0.1v39.7c-1.1-0.1-2.3-0.1-3.4-0.1c-23.3,0-42.1,18.9-42.1,42.1
		c0,23.3,18.9,42.1,42.1,42.1c23.2,0,42.1-18.9,42.1-42.1c0-1.7-0.1-3.5-0.3-5.1V296l0.1-10.4l1-117.9h38.9c0,0,0,0.1,0,0.2
		C346.5,171.6,347.6,223.5,410.9,232.9z"/>
</g>
</svg>
