<?xml version="1.0" encoding="utf-8"?>
<!-- Generator: Adobe Illustrator 20.1.0, SVG Export Plug-In . SVG Version: 6.00 Build 0)  -->
<svg version="1.1" id="Layer_1" xmlns="http://www.w3.org/2000/svg" xmlns:xlink="http://www.w3.org/1999/xlink" x="0px" y="0px"
	 viewBox="0 0 600 600" style="enable-background:new 0 0 600 600;" xml:space="preserve">
<style type="text/css">
	.st0{fill:none;stroke:#161815;stroke-width:14;stroke-miterlimit:10;}
	.st1{fill:#161815;}
</style>
<g>
	<g>
		<path id="XMLID_693_" class="st0" d="M300,543L300,543C161.9,543,50,431.1,50,293l0,0C50,154.9,161.9,43,300,43l0,0
			c138.1,0,250,111.9,250,250l0,0C550,431.1,438.1,543,300,543z"/>
	</g>
	<path id="XMLID_670_" class="st1" d="M181.9,377.3c21.4,13.8,46.9,21.8,74.3,21.8c90,0,140.8-76,137.7-144.2
		c9.5-6.8,17.7-15.4,24.2-25.1c-8.7,3.9-18,6.5-27.8,7.6c10-6,17.7-15.5,21.3-26.8c-9.4,5.6-19.7,9.6-30.8,11.8
		c-8.8-9.4-21.4-15.3-35.4-15.3c-31.3,0-54.3,29.2-47.2,59.5c-40.3-2-76-21.3-99.9-50.6c-12.7,21.8-6.6,50.3,15,64.7
		c-7.9-0.3-15.4-2.4-22-6.1c-0.5,22.5,15.6,43.5,38.9,48.1c-6.8,1.9-14.3,2.3-21.9,0.8c6.2,19.3,24.1,33.3,45.3,33.7
		C233.3,373.2,207.6,380.3,181.9,377.3z"/>
</g>
</svg>
