<?xml version="1.0" encoding="utf-8"?>
<!-- Generator: Adobe Illustrator 20.1.0, SVG Export Plug-In . SVG Version: 6.00 Build 0)  -->
<svg version="1.1" id="Layer_1" xmlns="http://www.w3.org/2000/svg" xmlns:xlink="http://www.w3.org/1999/xlink" x="0px" y="0px"
	 viewBox="0 0 600 600" style="enable-background:new 0 0 600 600;" xml:space="preserve">
<style type="text/css">
	.st0{fill:none;stroke:#161815;stroke-width:14;stroke-miterlimit:10;}
	.st1{fill:#161815;}
</style>
<g>
	<g>
		<path id="XMLID_687_" class="st0" d="M301,543L301,543C162.9,543,51,431.1,51,293l0,0C51,154.9,162.9,43,301,43l0,0
			c138.1,0,250,111.9,250,250l0,0C551,431.1,439.1,543,301,543z"/>
	</g>
	<path class="st1" d="M433.8,225.8c-3.2-12-12.6-21.5-24.5-24.7c-21.6-5.8-108.3-5.8-108.3-5.8s-86.7,0-108.3,5.8
		c-11.9,3.2-21.3,12.7-24.5,24.7c-5.8,21.8-5.8,67.2-5.8,67.2s0,45.4,5.8,67.2c3.2,12,12.6,21.5,24.5,24.7
		c21.6,5.8,108.3,5.8,108.3,5.8s86.7,0,108.3-5.8c11.9-3.2,21.3-12.7,24.5-24.7c5.8-21.8,5.8-67.2,5.8-67.2S439.6,247.6,433.8,225.8
		z M272.6,334.2v-82.4l72.5,41.2L272.6,334.2z"/>
</g>
</svg>
