<?xml version="1.0" standalone="no"?>
<!DOCTYPE svg PUBLIC "-//W3C//DTD SVG 20010904//EN"
 "http://www.w3.org/TR/2001/REC-SVG-20010904/DTD/svg10.dtd">
<svg version="1.0" xmlns="http://www.w3.org/2000/svg"
 width="1598.000000pt" height="400.000000pt" viewBox="0 0 1598.000000 400.000000"
 preserveAspectRatio="xMidYMid meet">

<g transform="translate(0.000000,400.000000) scale(0.100000,-0.100000)"
fill="currentColor" stroke="none">
<path d="M5192 3989 c-637 -38 -1224 -243 -1732 -603 -216 -153 -307 -241
-1870 -1803 l-1585 -1583 1135 0 1134 0 941 938 c597 596 978 969 1045 1022
391 312 817 484 1315 530 72 6 1146 10 3095 10 l2985 0 743 743 c408 408 742
745 742 750 0 10 -7780 6 -7948 -4z"/>
<path d="M11505 2000 l-2000 -2000 1235 0 1235 0 2000 2000 2000 2000 -1235 0
-1235 0 -2000 -2000z"/>
<path d="M5515 2239 c-382 -36 -721 -178 -1010 -421 -49 -42 -481 -468 -960
-947 l-870 -871 1045 0 1044 0 316 313 c328 326 386 374 536 443 89 42 218 79
318 93 53 8 709 11 2079 11 l2002 0 695 695 695 695 -2900 -1 c-1595 -1 -2940
-6 -2990 -10z"/>
<path d="M13010 460 l0 -40 80 0 80 0 0 -210 0 -210 50 0 50 0 0 210 0 210 80
0 80 0 0 40 0 40 -210 0 -210 0 0 -40z"/>
<path d="M13500 250 l0 -250 45 0 45 0 2 198 3 197 51 -195 50 -195 50 -3 49
-3 52 198 51 198 1 -197 1 -198 50 0 50 0 0 250 0 250 -79 0 -80 0 -15 -52
c-8 -29 -27 -100 -42 -158 -15 -58 -30 -109 -34 -113 -4 -5 -22 45 -39 110
-18 65 -38 138 -45 163 l-13 45 -77 3 -76 3 0 -251z"/>
</g>
</svg>
